<?xml version="1.0" encoding="utf-8"?>
<!-- Svg Vector Icons : http://www.onlinewebfonts.com/icon -->
<!DOCTYPE svg PUBLIC "-//W3C//DTD SVG 1.1//EN" "http://www.w3.org/Graphics/SVG/1.1/DTD/svg11.dtd">
<svg version="1.1" xmlns="http://www.w3.org/2000/svg" xmlns:xlink="http://www.w3.org/1999/xlink" x="0px" y="0px" viewBox="0 0 1000 1000" enable-background="new 0 0 1000 1000" xml:space="preserve">
<metadata> Svg Vector Icons : http://www.onlinewebfonts.com/icon </metadata>
<g><g><path d="M975.6,394.6l-420.4-246c-9-5.3-20.1-5.3-29.1-0.1c-9,5.2-14.6,14.8-14.6,25.2l-0.1,111.1c-0.5,0.1-0.9,0.2-1.2,0.3c-10.5,2.9-21.7,6.2-35.1,10.2c-43.7,13-88.5,29.8-141.1,52.9c-45.7,20.1-90.4,46-132.8,77c-30.3,22.2-58.9,47.7-84.8,76C45.7,578,7,680,10.2,781.1c0.6,17.7,2.5,34.7,4.4,49c1.9,14.2,13.8,24.9,28.1,25.3c0.2,0,0.4,0,0.7,0c14,0,26.1-10.1,28.6-24c7.8-44.2,20.3-80.5,38.1-111c22.3-38.1,52.6-70.1,87.6-92.5c30.1-19.3,61.9-34,97.2-45.2c41.2-13,86.6-21.2,138.8-24.9c21.1-1.5,43.8-2.3,71.4-2.4c0.8,0,2.6,0,5,0l0.1,104.8c0,10.3,5.5,19.9,14.5,25.1c8.9,5.2,20,5.2,29,0.1l421.9-240.5c9-5.1,14.6-14.7,14.7-25.1C990.1,409.5,984.6,399.9,975.6,394.6z"/></g><g></g><g></g><g></g><g></g><g></g><g></g><g></g><g></g><g></g><g></g><g></g><g></g><g></g><g></g><g></g></g>
</svg>