<?xml version="1.0" encoding="utf-8"?>
<!-- Generator: Adobe Illustrator 19.0.0, SVG Export Plug-In . SVG Version: 6.00 Build 0)  -->
<svg version="1.1" id="Layer_1" xmlns="http://www.w3.org/2000/svg" xmlns:xlink="http://www.w3.org/1999/xlink" x="0px" y="0px"
	 viewBox="0 0 512 512" style="enable-background:new 0 0 512 512;" xml:space="preserve">
<style type="text/css">
	.st0{fill:#BDC3C7;}
	.st1{fill:#95A5A6;}
	.st2{fill:#7F8C8D;}
	.st3{fill:#ECF0F1;}
	.st4{fill:#E67E22;}
	.st5{fill:#34495E;}
	.st6{fill:#2C3E50;}
	.st7{fill:#D35400;}
</style>
<g id="XMLID_1_">
	<path id="XMLID_3_" class="st0" d="M82.8,42.5c-23.6,0-42.5,18.9-42.5,42.5V256v85.1v128.4c0,23.6,18.9,42.5,42.5,42.5h298.5
		c23.6,0,42.5-18.9,42.5-42.5V341.1V256v-85.1V85.1c0-23.6-18.9-42.5-42.5-42.5h-85.9H82.8z"/>
	<path id="XMLID_8_" class="st1" d="M104.1,0C92.3,0,82.8,8.7,82.8,21.3v63.8c0,11,9.5,21.3,21.3,21.3s21.3-11,21.3-21.3V21.3
		C125.3,8.7,115.9,0,104.1,0z M189.1,0c-11.8,0-21.3,8.7-21.3,21.3v63.8c0,11,9.5,21.3,21.3,21.3s21.3-11,21.3-21.3V21.3
		C210.4,8.7,201,0,189.1,0z M274.2,0c-11.8,0-21.3,8.7-21.3,21.3v63.8c0,11,9.5,21.3,21.3,21.3c11.8,0,21.3-11,21.3-21.3V21.3
		C295.5,8.7,286,0,274.2,0z M360.1,0c-11.8,0-21.3,8.7-21.3,21.3v63.8c0,11,9.5,21.3,21.3,21.3c11.8,0,21.3-11,21.3-21.3V21.3
		C381.3,8.7,371.9,0,360.1,0z"/>
	<rect id="XMLID_9_" x="104.1" y="319.8" class="st1" width="256" height="21.3"/>
	<rect id="XMLID_10_" x="104.1" y="256" class="st1" width="256" height="21.3"/>
	<rect id="XMLID_11_" x="104.1" y="192.2" class="st1" width="256" height="21.3"/>
	<rect id="XMLID_12_" x="104.1" y="384.4" class="st1" width="85.1" height="21.3"/>
	<path id="XMLID_17_" class="st2" d="M82.8,85.1c0,11,9.5,21.3,21.3,21.3s21.3-11,21.3-21.3H82.8z M167.9,85.1
		c0,11,9.5,21.3,21.3,21.3s21.3-11,21.3-21.3H167.9z M252.9,85.1c0,11,9.5,21.3,21.3,21.3c11.8,0,21.3-11,21.3-21.3H252.9z
		 M338.8,85.1c0,11,9.5,21.3,21.3,21.3c11.8,0,21.3-11,21.3-21.3H338.8z"/>
	<path id="XMLID_18_" class="st1" d="M39.5,448.2v21.3c0,23.6,18.9,42.5,42.5,42.5h298.5c23.6,0,42.5-18.9,42.5-42.5v-21.3
		c0,23.6-18.9,42.5-42.5,42.5H82.8C59.2,490.7,39.5,471.8,39.5,448.2z"/>
	<polygon id="XMLID_19_" class="st3" points="384.5,148.9 214.4,319 203.3,329.3 188.4,345 188.4,404.9 249,404.9 264,389.9 
		274.2,379.7 445.1,208.7 	"/>
	<polygon id="XMLID_20_" class="st0" points="414.4,178.8 188.4,404.9 249,404.9 264,389.9 274.2,379.7 445.1,208.7 	"/>
	
		<rect id="XMLID_21_" x="273.7" y="159.6" transform="matrix(0.7071 0.7071 -0.7071 0.7071 288.5006 -142.506)" class="st4" width="85.1" height="234.7"/>
	<path id="XMLID_22_" class="st2" d="M460.1,133.9c-16.5-16.5-44.1-16.5-60.7,0l-15,15l60.7,59.9l15-15
		C476.7,177.2,476.7,150.4,460.1,133.9z"/>
	<polygon id="XMLID_23_" class="st5" points="188.4,362.3 188.4,404.9 230.9,404.9 209.6,383.6 	"/>
	<polygon id="XMLID_24_" class="st6" points="209.6,383.6 188.4,404.9 230.9,404.9 	"/>
	<path id="XMLID_25_" class="st1" d="M460.1,133.9c-16.5-16.5-44.1-16.5-60.7,0l-15,15l29.9,29.9L460.1,133.9z"/>
	
		<rect id="XMLID_26_" x="310.6" y="174.3" transform="matrix(0.7071 0.7071 -0.7071 0.7071 303.4742 -149.2633)" class="st7" width="42.5" height="234.7"/>
</g>
</svg>
