<?xml version="1.0" encoding="UTF-8"?>
<svg width="700pt" height="700pt" version="1.1" viewBox="0 0 700 700" xmlns="http://www.w3.org/2000/svg" xmlns:xlink="http://www.w3.org/1999/xlink">
 <defs>
  <symbol id="w" overflow="visible">
   <path d="m0.03125 0h-0.015625-0.015625v-0.015625-0.015625h0.015625 0.015625-0.015625v0.015625 0.015625h0.015625v-0.015625z"/>
  </symbol>
  <symbol id="e" overflow="visible">
   <path d="m0.015625-0.015625v0.015625h-0.015625v-0.03125h0.015625v0.015625-0.015625z"/>
  </symbol>
  <symbol id="b" overflow="visible">
   <path d="m0.03125-0.015625h-0.015625v0.015625c0.0078125 0 0.015625-0.0039062 0.015625-0.015625v0.015625h-0.015625-0.015625v-0.015625l0.015625-0.015625v0.015625h0.015625z"/>
  </symbol>
  <symbol id="a" overflow="visible">
   <path d="m0.015625-0.015625v0.015625-0.015625zm0.015625 0v0.015625h-0.015625-0.015625v-0.015625h0.015625-0.015625v-0.015625h0.015625v0.015625h0.015625z"/>
  </symbol>
  <symbol id="d" overflow="visible">
   <path d="m0.015625-0.03125v0.015625 0.015625h-0.015625v-0.015625-0.015625z"/>
  </symbol>
  <symbol id="l" overflow="visible">
   <path d="m0.015625-0.015625v-0.015625h0.015625v0.03125h-0.015625-0.015625v-0.015625l0.015625-0.015625v0.015625zm0 0.015625v-0.015625 0.015625z"/>
  </symbol>
  <symbol id="k" overflow="visible">
   <path d="m0.015625 0v-0.015625 0.015625zm0-0.015625v-0.015625c0.0078125 0 0.015625 0.0078125 0.015625 0.015625v0.015625h-0.015625-0.015625v-0.03125h0.015625z"/>
  </symbol>
  <symbol id="j" overflow="visible">
   <path d="m0-0.03125h0.015625v0.015625-0.015625h0.015625l-0.015625 0.03125v0.015625h-0.015625v-0.015625h0.015625z"/>
  </symbol>
  <symbol id="i" overflow="visible">
   <path d="m0.015625-0.03125v0.015625 0.015625h0.015625v-0.015625c0-0.0078125-0.0078125-0.015625-0.015625-0.015625zm0 0h0.015625v0.015625 0.015625h-0.015625-0.015625v-0.015625-0.015625h0.015625z"/>
  </symbol>
  <symbol id="v" overflow="visible">
   <path d="m0-0.03125h0.015625v0.03125h-0.015625z"/>
  </symbol>
  <symbol id="f" overflow="visible">
   <path d="m0.03125-0.015625v0.015625h-0.015625v-0.015625 0.015625h-0.015625v-0.03125h0.015625v0.015625-0.015625c0.0078125 0 0.015625 0.0078125 0.015625 0.015625z"/>
  </symbol>
  <symbol id="h" overflow="visible">
   <path d="m0-0.03125h0.015625 0.015625v0.015625h-0.015625v0.015625h-0.015625zm0.015625 0v0.015625-0.015625z"/>
  </symbol>
  <symbol id="g" overflow="visible">
   <path d="m0.03125-0.03125v0.015625h-0.015625c0.0078125 0 0.015625 0.0078125 0.015625 0.015625h-0.015625-0.015625 0.015625v-0.015625h-0.015625l0.015625-0.015625h0.015625z"/>
  </symbol>
  <symbol id="c" overflow="visible">
   <path d="m0.015625-0.015625v0.015625-0.015625zm0-0.015625v0.015625h0.015625c0 0.011719-0.0078125 0.015625-0.015625 0.015625h-0.015625v-0.015625l0.015625-0.015625z"/>
  </symbol>
  <symbol id="u" overflow="visible">
   <path d="m0-0.03125h0.015625v0.015625-0.015625h0.015625l-0.015625 0.03125z"/>
  </symbol>
  <symbol id="t" overflow="visible">
   <path d="m0-0.03125h0.015625v0.015625-0.015625h0.015625l-0.015625 0.015625 0.015625 0.015625h-0.015625v-0.015625 0.015625h-0.015625z"/>
  </symbol>
  <symbol id="s" overflow="visible">
   <path d="m0.015625-0.03125v0.03125h-0.015625v-0.03125h0.015625z"/>
  </symbol>
  <symbol id="r" overflow="visible">
   <path d="m0.03125-0.015625v-0.015625c0.0078125 0 0.015625 0.0078125 0.015625 0.015625v0.015625h-0.015625v-0.015625 0.015625h-0.015625v-0.015625 0.015625h-0.015625v-0.03125h0.015625v0.015625-0.015625 0.015625h0.015625z"/>
  </symbol>
  <symbol id="q" overflow="visible">
   <path d="m0.03125-0.015625v0.015625h-0.015625v-0.015625 0.015625h-0.015625v-0.03125h0.015625v0.015625-0.015625c0.0078125 0 0.015625 0.0078125 0.015625 0.015625z"/>
  </symbol>
  <symbol id="p" overflow="visible">
   <path d="m0-0.03125h0.015625l0.015625 0.015625v-0.015625 0.03125l-0.015625-0.015625v0.015625h-0.015625z"/>
  </symbol>
  <symbol id="o" overflow="visible">
   <path d="m0-0.015625v-0.015625h0.015625v0.015625 0.015625-0.015625-0.015625h0.015625v0.03125h-0.015625-0.015625v-0.015625z"/>
  </symbol>
  <symbol id="n" overflow="visible">
   <path d="m0-0.03125h0.015625v0.03125h-0.015625v0.015625zm0 0h0.015625z"/>
  </symbol>
  <symbol id="m" overflow="visible">
   <path d="m0.03125-0.03125v0.015625h-0.015625v0.015625h0.015625-0.015625-0.015625v-0.015625l0.015625-0.015625h0.015625z"/>
  </symbol>
 </defs>
 <g>
  <path d="m572.11 54.16c0-2.0625 1.6719-3.7344 3.7344-3.7344s3.7344 1.6719 3.7344 3.7344v88.227c0 5.2812 0.046875 8.5781 0.085937 11.621 0.29688 22.082 0.44922 32.809-12.543 56.094-30.883 55.328-66.566 106.42-105.31 152.3-34.934 41.375-72.352 78.531-110.98 110.76-3.5469 3.6133-7.8594 7.1602-13.012 10.629-1.793 1.4297-3.5742 2.8555-5.3672 4.2578-39.348 30.949-106.2 26.879-162.67 23.438-16.371-1-31.855-1.9414-45.602-1.9414-2.0625 0-3.7344-1.6719-3.7344-3.7344s1.6719-3.7344 3.7344-3.7344c13.703 0 29.418 0.96094 46.043 1.9688 55.188 3.3594 120.49 7.3359 157.63-21.867 1.3984-1.1016 2.8008-2.2031 4.1914-3.3242 0.21484-0.24219 0.46484-0.46484 0.75781-0.65234 0.14062-0.09375 0.26953-0.17578 0.40234-0.26953 3.9766-3.1836 7.9414-6.4102 11.891-9.707 16.715-17.211 13.402-36 1.707-53.762-14.504-22.035-41.59-42.887-60.871-57.734-6.8867-5.3008-12.797-9.8555-16.836-13.441-0.38281-0.30859-0.69922-0.69922-0.94141-1.168-0.95312-1.8281-0.24219-4.0781 1.5859-5.0312 10.473-5.4414 28.941-14 51.762-24.566 89.824-41.59 247.91-114.79 250.63-151.67 0.019531-0.30859 0.085937-0.60547 0.16797-0.88672-0.007812-1.875-0.039062-3.8438-0.066406-5.9062-0.054687-4.0586-0.11328-8.4648-0.11328-11.715v-88.227zm-85.109 240.49c-0.46484 0.61719-1.3438 0.72656-1.9609 0.26172-0.61719-0.46484-0.72656-1.3438-0.26172-1.9609 10.043-13.168 19.816-26.684 29.297-40.543 9.3633-13.684 18.434-27.684 27.168-41.98 0.84766-1.3906 3.043-5.3008 5.1875-9.1367-52.461 39.609-155.48 87.312-221.82 118.04-19.387 8.9805-35.605 16.484-46.469 21.895 3.4609 2.8281 7.6641 6.0586 12.32 9.6406 19.676 15.148 47.32 36.43 62.535 59.539 9.1562 13.906 13.906 28.355 10.125 42.391 32.266-28.422 63.523-60.301 92.996-95.211 38.453-45.547 73.863-96.234 104.49-151.11 4.8828-8.7344 7.7578-15.586 9.4375-22.027-12.367 22.391-28.543 48.16-45.613 73.305-20.469 30.148-42.215 59.379-60.238 80.836-0.66406 0.79297-1.8398 0.89453-2.6211 0.23438-0.79297-0.66406-0.89453-1.8398-0.23438-2.6211 17.984-21.41 39.648-50.539 60.012-80.527 16.426-24.184 32.012-48.953 44.164-70.727-3.7969 3.8555-8.2969 7.832-13.375 11.91-0.83984 1.4922-1.8945 3.3711-2.9688 5.293-2.2305 3.9844-4.582 8.1758-5.5352 9.7344-8.7734 14.355-17.863 28.391-27.242 42.102-9.5117 13.887-19.312 27.457-29.391 40.664zm-149.83 214.5c-0.61719 0.45703-1.4922 0.32812-1.9492-0.28906-0.45703-0.61719-0.32812-1.4922 0.28906-1.9492 17.324-12.832 34.488-26.664 51.371-41.441 16.754-14.664 33.254-30.25 49.383-46.715 0.54297-0.55078 1.4297-0.55859 1.9805-0.019531 0.55078 0.54297 0.55859 1.4297 0.019531 1.9805-16.164 16.492-32.715 32.133-49.531 46.852-16.949 14.832-34.168 28.719-51.547 41.59zm-9.5586-2.6875c-0.83203 0.60547-1.9961 0.42969-2.6055-0.40234-0.60547-0.83203-0.42969-1.9961 0.40234-2.6055 24.219-17.723 48.152-37.438 71.492-58.941 23.035-21.223 45.492-44.211 67.09-68.77 0.67969-0.77344 1.8555-0.84766 2.6328-0.16797 0.77344 0.67969 0.84766 1.8555 0.16797 2.6328-21.664 24.641-44.223 47.723-67.367 69.047-23.438 21.598-47.48 41.395-71.812 59.203z"/>
  <use x="70" y="560.140625" xlink:href="#w"/>
  <use x="70.035156" y="560.140625" xlink:href="#e"/>
  <use x="70.058594" y="560.140625" xlink:href="#b"/>
  <use x="70.089844" y="560.140625" xlink:href="#a"/>
  <use x="70.121094" y="560.140625" xlink:href="#d"/>
  <use x="70.144531" y="560.140625" xlink:href="#b"/>
  <use x="70.175781" y="560.140625" xlink:href="#l"/>
  <use x="70.222656" y="560.140625" xlink:href="#k"/>
  <use x="70.257812" y="560.140625" xlink:href="#j"/>
  <use x="70.304688" y="560.140625" xlink:href="#i"/>
  <use x="70.34375" y="560.140625" xlink:href="#v"/>
  <use x="70.359375" y="560.140625" xlink:href="#b"/>
  <use x="70.390625" y="560.140625" xlink:href="#f"/>
  <use x="70.425781" y="560.140625" xlink:href="#a"/>
  <use x="70.472656" y="560.140625" xlink:href="#h"/>
  <use x="70.507812" y="560.140625" xlink:href="#a"/>
  <use x="70.539062" y="560.140625" xlink:href="#f"/>
  <use x="70.570312" y="560.140625" xlink:href="#a"/>
  <use x="70.601562" y="560.140625" xlink:href="#g"/>
  <use x="70.628906" y="560.140625" xlink:href="#c"/>
  <use x="70.664062" y="560.140625" xlink:href="#u"/>
  <use x="70.691406" y="560.140625" xlink:href="#g"/>
  <use x="70.722656" y="560.140625" xlink:href="#t"/>
  <use x="70.75" y="560.140625" xlink:href="#a"/>
  <use x="70" y="560.1875" xlink:href="#s"/>
  <use x="70.019531" y="560.1875" xlink:href="#e"/>
  <use x="70.042969" y="560.1875" xlink:href="#c"/>
  <use x="70.074219" y="560.1875" xlink:href="#r"/>
  <use x="70.140625" y="560.1875" xlink:href="#d"/>
  <use x="70.164062" y="560.1875" xlink:href="#q"/>
  <use x="70.195312" y="560.1875" xlink:href="#b"/>
  <use x="70.242188" y="560.1875" xlink:href="#p"/>
  <use x="70.28125" y="560.1875" xlink:href="#c"/>
  <use x="70.316406" y="560.1875" xlink:href="#o"/>
  <use x="70.347656" y="560.1875" xlink:href="#f"/>
  <use x="70.398438" y="560.1875" xlink:href="#h"/>
  <use x="70.433594" y="560.1875" xlink:href="#e"/>
  <use x="70.453125" y="560.1875" xlink:href="#c"/>
  <use x="70.488281" y="560.1875" xlink:href="#n"/>
  <use x="70.503906" y="560.1875" xlink:href="#b"/>
  <use x="70.535156" y="560.1875" xlink:href="#m"/>
  <use x="70.5625" y="560.1875" xlink:href="#d"/>
 </g>
</svg>
